<svg xmlns="http://www.w3.org/2000/svg" xmlns:xlink="http://www.w3.org/1999/xlink" width="98" height="98" viewBox="0 0 98 98">
    <defs>
        <circle id="prefix__a" cx="48" cy="48" r="48"/>
    </defs>
    <g fill="none" fill-rule="evenodd" transform="translate(1 1)">
        <mask id="prefix__b" fill="#fff">
            <use xlink:href="#prefix__a"/>
        </mask>
        <use stroke="#171347" stroke-linecap="round" stroke-width=".9" xlink:href="#prefix__a"/>
        <g stroke="#171347" stroke-linecap="round" stroke-width=".9" mask="url(#prefix__b)">
            <g>
                <path d="M13.76 16.328h-3.07c0-2.158-1.675-3.925-3.796-4.072v1.566c0 .633-.513 1.146-1.146 1.146h-4.57c-.633 0-1.146-.513-1.146-1.146V1.826C.032 1.193.545.68 1.178.68h4.57c.633 0 1.146.513 1.146 1.146v1.575h.394c1.816 0 3.3-1.422 3.397-3.214L10.69 0H23.71c6.982 0 12.913 5.065 14.032 11.924l.05.322h-2.06l-.978-1.059c-1.782-1.927-4.287-3.023-6.912-3.023h-.678c-1.9 0-3.439 1.54-3.439 3.439v4.726l-4.527-.001v23.133h1.83l1.703 32.44c.1 1.897-1.357 3.515-3.253 3.614-.06.003-.12.005-.18.005h-5.497c-1.899 0-3.438-1.54-3.438-3.438 0-.06.001-.12.005-.18l1.693-32.441h1.816l-.119-23.133z" transform="translate(31.624 25.6)"/>
                <path d="M6.432 12.16h0V3.378m2.631-.587C9.972 2.183 10.568 1.16 10.568 0m12.976 0c6.354 0 11.847 4.064 13.711 9.83m.537 2.33h-2.067l-.997-1.065M12.832 39.36L20.612 39.341M10.912 16.32L12.192 16.32" transform="translate(31.624 25.6)"/>
                <path d="M1.952 0.64L5.792 0.64" transform="translate(31.624 25.6) matrix(-1 0 0 1 7.745 0)"/>
            </g>
        </g>
    </g>
</svg>
