<svg xmlns="http://www.w3.org/2000/svg" width="98" height="98" viewBox="0 0 98 98">
    <g fill="none" fill-rule="evenodd" stroke="#171347" stroke-linecap="round" stroke-width=".9" transform="translate(1 1)">
        <circle cx="48" cy="48" r="48"/>
        <g>
            <path d="M11.124 44.103c0-1.77-.312-4.65-.934-8.64h0c.622-3.97.934-6.84.934-8.61 0-1.77-.312-4.733-.934-8.888h0c.622-3.805.934-6.593.934-8.362 0-2.441-.26-4.882-.778-7.323-.123-.583.249-1.155.831-1.279.074-.016.149-.023.224-.023h6.992c.595 0 1.078.482 1.078 1.078 0 .075-.008.15-.023.224-.519 2.44-.778 4.882-.778 7.323 0 1.746.294 4.484.882 8.213h0c.016.099.017.2.002.299-.589 4.076-.884 6.989-.884 8.738 0 1.747.295 4.573.883 8.476h0c.015.098.015.199 0 .298-.588 3.903-.883 6.728-.883 8.476 0 1.75.254 4.578.76 8.482h0c.012.086.012.172.001.257-.507 3.923-.76 6.76-.76 8.51 0 2.655.306 5.31.919 7.965.067.29-.114.58-.404.647-.04.009-.08.014-.121.014h-8.336c-.297 0-.539-.242-.539-.54 0-.04.005-.081.014-.12.613-2.656.92-5.31.92-7.965 0-1.77-.26-4.65-.778-8.64h0c.518-4.15.778-7.02.778-8.61zM26.22 23.97c-.606 1.166-1.166 1.913-1.68 2.241-.727.464-1.943.464-3.65 0 .056-1.502.58-2.57 1.572-3.204.993-.633 2.503-.864 4.532-.691M20.89 26.211L18.918 27.814M9.12 43.658c-1.851.936-3.5 1.003-4.945.2-1.445-.804-2.758-2.517-3.94-5.14 3.2-.303 5.328-.16 6.384.427.703.391 1.307 1.187 1.813 2.389" transform="translate(32.81 13.022)"/>
            <path d="M11.401 43.266L9.429 44.869" transform="translate(32.81 13.022) rotate(-119 10.415 44.068)"/>
            <path d="M18.966 26.888c0 2.656.306 5.312.92 7.968.066.29-.115.58-.405.647-.04.01-.08.014-.121.014h-4.41M10.481 17.996L17.348 17.996M10.336 52.775L19.531 52.775" transform="translate(32.81 13.022)"/>
        </g>
    </g>
</svg>
