<svg xmlns="http://www.w3.org/2000/svg" width="516.8" height="516.8" viewBox="0 0 516.8 516.8">
  <g id="Group_3" data-name="Group 3" transform="translate(2.4 2.4)">
    <g id="recycled-illustration">
      <circle id="BG" cx="256" cy="256" r="256" fill="none" stroke="#171347" stroke-linecap="round" stroke-miterlimit="10" stroke-width="4.8"/>
      <g id="Group_3-2" data-name="Group 3" transform="translate(80.539 161.079)">
        <path id="Path" d="M165.393.118l-8.629,20.135H279.011L238.742,123.8H115.056l5.753-14.382H0L41.5,0Z" transform="translate(62.249 11.387)" fill="none" stroke="#171347" stroke-linecap="round" stroke-miterlimit="10" stroke-width="4.8"/>
        <path id="Path_3" data-name="Path 3" d="M107.387,0,0,279.207" transform="translate(0.884)" fill="none" stroke="#171347" stroke-linecap="round" stroke-miterlimit="10" stroke-width="4.8"/>
        <g id="Group_5" data-name="Group 5" transform="translate(122.127 14.921)">
          <path id="Path-2" data-name="Path" d="M35.969,0l-7.95,8.557a1.509,1.509,0,0,1-.708.436.76.76,0,0,1-.652-.082l-3.343-2.48L20.358,20.237a1.418,1.418,0,0,1-.834.92c-.414.173-.8.1-.955-.172l-3.194-5.958-2.735,3.242a1.316,1.316,0,0,1-1.179.5L4.85,17.258l-.606,7.507a1.37,1.37,0,0,1-.88,1.037L0,27.1l8.443,10a.774.774,0,0,1-.127.958l-3.276,4.2,12.278-1.982a.935.935,0,0,1,.933.294.972.972,0,0,1,.019.992L13.011,52.89h1.018" transform="translate(56.228 33.404)" fill="none" stroke="#171347" stroke-linecap="round" stroke-miterlimit="10" stroke-width="4.8"/>
          <path id="Path-3" data-name="Path" d="M0,52.89H1.368L5.427,41.564a2.083,2.083,0,0,1,.835-.992,1.7,1.7,0,0,1,1.175-.294l10.648,1.982.18-4.2a1.286,1.286,0,0,1,.661-.958L35.6,27.1,33.3,25.8c-.32-.184-.331-.628-.027-1.037l5.57-7.507-7.854,1.509c-.438.083-.76-.126-.769-.5l-.068-3.242-8.1,5.958a1.032,1.032,0,0,1-1.1.172c-.272-.173-.3-.548-.077-.92l8.4-13.806L23.9,8.911a1,1,0,0,1-.719.082.492.492,0,0,1-.35-.436L21.924,0" transform="translate(70.147 41.755)" fill="none" stroke="#171347" stroke-linecap="round" stroke-miterlimit="10" stroke-width="4.8"/>
          <path id="Path-4" data-name="Path" d="M40.846,0,0,105.779" transform="translate(0 0)" fill="none" stroke="#171347" stroke-linecap="round" stroke-miterlimit="10" stroke-width="4.8"/>
          <path id="Path-5" data-name="Path" d="M0,100.212,38.971,0" transform="translate(123.053 19.486)" fill="none" stroke="#171347" stroke-linecap="round" stroke-miterlimit="10" stroke-width="4.8"/>
        </g>
      </g>
    </g>
  </g>
</svg>
