<svg xmlns="http://www.w3.org/2000/svg" width="516.8" height="516.8" viewBox="0 0 516.8 516.8">
  <g id="Group_3" data-name="Group 3" transform="translate(2.4 2.4)">
    <g id="Group_20" data-name="Group 20">
      <circle id="Oval" cx="256" cy="256" r="256" fill="none" stroke="#171347" stroke-linecap="round" stroke-miterlimit="10" stroke-width="4.8"/>
      <rect id="Rectangle" width="60.746" height="69.424" transform="translate(225.627 117.153)" fill="none" stroke="#171347" stroke-linecap="round" stroke-miterlimit="10" stroke-width="4.8"/>
      <path id="Rectangle-2" data-name="Rectangle" d="M73.763,0h60.746l60.128,159.164a26.667,26.667,0,0,1-24.946,36.091H38.58a26.667,26.667,0,0,1-24.946-36.091Z" transform="translate(151.864 186.576)" fill="none" stroke="#171347" stroke-linecap="round" stroke-miterlimit="10" stroke-width="4.8"/>
      <path id="Path_14" data-name="Path 14" d="M0,46.638S33.377,20.578,72.428,20.578,127.068,0,127.068,0" transform="translate(183.572 249.523)" fill="none" stroke="#171347" stroke-linecap="round" stroke-miterlimit="10" stroke-width="4.8"/>
      <rect id="Rectangle-3" data-name="Rectangle" width="78.102" height="13.017" rx="5.333" transform="translate(216.949 104.136)" fill="none" stroke="#171347" stroke-linecap="round" stroke-miterlimit="10" stroke-width="4.8"/>
      <path id="Path_11" data-name="Path 11" d="M360.928,0,0,360.928" transform="translate(76.123 72.11)" fill="none" stroke="#171347" stroke-linecap="round" stroke-miterlimit="10" stroke-width="4.8"/>
      <path id="Path_13" data-name="Path 13" d="M10.752,2.169H0" transform="translate(275.525 128)" fill="none" stroke="#171347" stroke-linecap="round" stroke-miterlimit="10" stroke-width="4.8"/>
      <path id="Path_13-2" data-name="Path 13" d="M10.752,2.169H0" transform="translate(275.525 143.765)" fill="none" stroke="#171347" stroke-linecap="round" stroke-miterlimit="10" stroke-width="4.8"/>
      <path id="Path_13-3" data-name="Path 13" d="M10.752,2.169H0" transform="translate(275.525 159.53)" fill="none" stroke="#171347" stroke-linecap="round" stroke-miterlimit="10" stroke-width="4.8"/>
      <path id="Path_13-4" data-name="Path 13" d="M10.752,2.169H0" transform="translate(275.525 175.295)" fill="none" stroke="#171347" stroke-linecap="round" stroke-miterlimit="10" stroke-width="4.8"/>
    </g>
  </g>
</svg>
