<svg xmlns="http://www.w3.org/2000/svg" width="516.8" height="516.8" viewBox="0 0 516.8 516.8">
  <g id="Group_3" data-name="Group 3" transform="translate(2.4 2.4)">
    <g id="resistant-illustration">
      <circle id="BG" cx="256" cy="256" r="256" fill="none" stroke="#171347" stroke-linecap="round" stroke-miterlimit="10" stroke-width="4.8"/>
      <path id="Combined_Shape" data-name="Combined Shape" d="M165.334,256a192.27,192.27,0,0,1-58.127-8.7A163.338,163.338,0,0,1,81.84,236.9a142.241,142.241,0,0,1-22.1-14.028A123.354,123.354,0,0,1,41.5,205.532a109.5,109.5,0,0,1-13.768-20.345A103.76,103.76,0,0,1,16,136.727a110,110,0,0,1,9.761-44.455A136.785,136.785,0,0,1,37.09,71.684,154.875,154.875,0,0,1,51.943,52.8a151.141,151.141,0,0,0-23.78,32.531,35.139,35.139,0,0,1-11.25-4.042,33.374,33.374,0,0,1-8.92-7.363A32.992,32.992,0,0,1,2.118,63.878,34.962,34.962,0,0,1,0,51.767,38.439,38.439,0,0,1,3.015,36.913,42.212,42.212,0,0,1,11.238,24.26a43.474,43.474,0,0,1,12.2-9.133,41.393,41.393,0,0,1,14.935-4.3c1.2-.109,2.4-.164,3.591-.164a35.741,35.741,0,0,1,19.941,5.9,32.981,32.981,0,0,1,12.6,15.8A168.417,168.417,0,0,0,51.943,52.8,172.668,172.668,0,0,1,74.666,32.831c-.051-.141-.105-.287-.17-.458A171.2,171.2,0,0,1,95.313,18.918a163.211,163.211,0,0,1,22.475-10.2A138.968,138.968,0,0,1,165.334,0a138.1,138.1,0,0,1,44.627,7.693A165.085,165.085,0,0,1,251.117,28.7c-.152.3-.3.615-.453.934C271.1,44.681,287.7,63.94,298.68,85.331c.8-.305,1.607-.649,2.389-1.023-11.189-21.36-28.462-40.588-49.952-55.6a33.036,33.036,0,0,1,11.411-12.85,32.3,32.3,0,0,1,17.688-5.188c1.121,0,2.266.056,3.4.167a37.176,37.176,0,0,1,14.161,4.385,41.632,41.632,0,0,1,11.563,9.32,43.562,43.562,0,0,1,7.8,12.91A41.809,41.809,0,0,1,320,52.605a36.58,36.58,0,0,1-5.944,20.366,32.987,32.987,0,0,1-5.768,6.591,31.855,31.855,0,0,1-7.219,4.746A123.17,123.17,0,0,1,311.105,109.9a105.113,105.113,0,0,1,3.562,26.827,103.759,103.759,0,0,1-11.735,48.46,109.5,109.5,0,0,1-13.769,20.345,123.357,123.357,0,0,1-18.235,17.341,142.244,142.244,0,0,1-22.1,14.028,163.345,163.345,0,0,1-25.366,10.4A192.268,192.268,0,0,1,165.334,256ZM160,160a25.209,25.209,0,0,0-15.085,4.686c-4.029,3.022-6.249,7.04-6.249,11.314s2.219,8.291,6.249,11.313a26.622,26.622,0,0,0,30.17,0c4.029-3.022,6.248-7.04,6.248-11.313s-2.219-8.292-6.248-11.314A25.207,25.207,0,0,0,160,160Zm26.564-96c-1.417,0-2.6.027-3.457.047H183.1c-.522.012-.935.022-1.237.022a17.864,17.864,0,0,0-6.842,1.229,6.848,6.848,0,0,0-4.3,4.6c-.49,1.932,2.162,6.581,6.175,13.618,5.336,9.356,12.644,22.17,17.679,37.476,3.39,10.305,8.033,24.418,15.251,35.738C218.1,169.7,227.8,176,239.474,176c11.154,0,19.062-6.026,23.5-17.911,3.211-8.6,3.691-17.945,3.691-22.752,0-5.571-1.311-34.382-27.193-54.579C221.724,66.908,200.9,64,186.564,64Zm-53.128,0c-14.34,0-35.16,2.908-52.91,16.759-25.882,20.2-27.194,49.008-27.194,54.579,0,4.807.48,14.156,3.691,22.752C61.464,169.974,69.372,176,80.527,176c11.678,0,21.375-6.3,29.645-19.275,7.217-11.319,11.86-25.433,15.25-35.738,5.035-15.3,12.343-28.118,17.679-37.473,4.014-7.039,6.666-11.689,6.176-13.62a6.848,6.848,0,0,0-4.3-4.6,17.861,17.861,0,0,0-6.841-1.229c-.3,0-.714-.01-1.237-.022H136.9C136.032,64.027,134.853,64,133.436,64Zm76.23,69.333a18.244,18.244,0,0,1-7.918-1.8c-1.867-5.308-3.488-10.57-4.989-15.505-1.323-4.351-2.924-8.865-4.76-13.415a20.907,20.907,0,0,1,7.125-8.627,18.5,18.5,0,0,1,10.542-3.32,18.8,18.8,0,0,1,13.907,6.249,22.631,22.631,0,0,1,0,30.17A18.8,18.8,0,0,1,209.666,133.333Zm-99.337,0a18.792,18.792,0,0,1-13.9-6.248,22.636,22.636,0,0,1,0-30.17,18.792,18.792,0,0,1,13.9-6.249,18.492,18.492,0,0,1,10.546,3.325A20.911,20.911,0,0,1,128,102.632c-1.829,4.535-3.428,9.042-4.752,13.4-1.5,4.942-3.125,10.21-4.984,15.5A18.23,18.23,0,0,1,110.329,133.333Z" transform="translate(96 138.667)" fill="none" stroke="#171347" stroke-linecap="round" stroke-miterlimit="10" stroke-width="4.8"/>
    </g>
  </g>
</svg>
